<?xml version="1.0" encoding="UTF-8" standalone="no"?><svg xmlns="http://www.w3.org/2000/svg" xmlns:xlink="http://www.w3.org/1999/xlink" contentStyleType="text/css" height="1149px" preserveAspectRatio="none" style="width:1146px;height:1149px;background:#FFFFFF;" version="1.1" viewBox="0 0 1146 1149" width="1146px" zoomAndPan="magnify"><defs/><g><!--MD5=[2b611c2d60e481aa2035053367969193]
cluster Game--><g id="cluster_Game"><path d="M8.5,6 L49.5,6 A3.75,3.75 0 0 1 52,8.5 L59,29.6094 L1136.5,29.6094 A2.5,2.5 0 0 1 1139,32.1094 L1139,1139.5 A2.5,2.5 0 0 1 1136.5,1142 L8.5,1142 A2.5,2.5 0 0 1 6,1139.5 L6,8.5 A2.5,2.5 0 0 1 8.5,6 " fill="none" style="stroke:#000000;stroke-width:1.5;"/><line style="stroke:#000000;stroke-width:1.5;" x1="6" x2="59" y1="29.6094" y2="29.6094"/><text fill="#000000" font-family="sans-serif" font-size="14" font-weight="bold" lengthAdjust="spacing" textLength="40" x="10" y="22.5332">Game</text></g><!--MD5=[9f69e26558e82e28adbba7e30824dabb]
cluster GameCharacters--><g id="cluster_GameCharacters"><path d="M32.5,612 L150.5,612 A3.75,3.75 0 0 1 153,614.5 L160,635.6094 L1112.5,635.6094 A2.5,2.5 0 0 1 1115,638.1094 L1115,1115.5 A2.5,2.5 0 0 1 1112.5,1118 L32.5,1118 A2.5,2.5 0 0 1 30,1115.5 L30,614.5 A2.5,2.5 0 0 1 32.5,612 " fill="none" style="stroke:#000000;stroke-width:1.5;"/><line style="stroke:#000000;stroke-width:1.5;" x1="30" x2="160" y1="635.6094" y2="635.6094"/><text fill="#000000" font-family="sans-serif" font-size="14" font-weight="bold" lengthAdjust="spacing" textLength="117" x="34" y="628.5332">GameCharacters</text></g><!--MD5=[77166e1f680d2ab1f097de08fb1915c0]
cluster Heroes--><g id="cluster_Heroes"><path d="M56.5,826 L108.5,826 A3.75,3.75 0 0 1 111,828.5 L118,849.6094 L661.5,849.6094 A2.5,2.5 0 0 1 664,852.1094 L664,1091.5 A2.5,2.5 0 0 1 661.5,1094 L56.5,1094 A2.5,2.5 0 0 1 54,1091.5 L54,828.5 A2.5,2.5 0 0 1 56.5,826 " fill="none" style="stroke:#000000;stroke-width:1.5;"/><line style="stroke:#000000;stroke-width:1.5;" x1="54" x2="118" y1="849.6094" y2="849.6094"/><text fill="#000000" font-family="sans-serif" font-size="14" font-weight="bold" lengthAdjust="spacing" textLength="51" x="58" y="842.5332">Heroes</text></g><!--MD5=[bd3fe68db5997be28b47f299e9ca078f]
cluster HeroesClasses--><g id="cluster_HeroesClasses"><path d="M80.5,952 L187.5,952 A3.75,3.75 0 0 1 190,954.5 L197,975.6094 L637.5,975.6094 A2.5,2.5 0 0 1 640,978.1094 L640,1067.5 A2.5,2.5 0 0 1 637.5,1070 L80.5,1070 A2.5,2.5 0 0 1 78,1067.5 L78,954.5 A2.5,2.5 0 0 1 80.5,952 " fill="none" style="stroke:#000000;stroke-width:1.5;"/><line style="stroke:#000000;stroke-width:1.5;" x1="78" x2="197" y1="975.6094" y2="975.6094"/><text fill="#000000" font-family="sans-serif" font-size="14" font-weight="bold" lengthAdjust="spacing" textLength="106" x="82" y="968.5332">HeroesClasses</text></g><!--MD5=[681d92e88e4feeb4affdd6baf333bcfe]
cluster Beasts--><g id="cluster_Beasts"><path d="M690.5,826 L739.5,826 A3.75,3.75 0 0 1 742,828.5 L749,849.6094 L1088.5,849.6094 A2.5,2.5 0 0 1 1091,852.1094 L1091,1091.5 A2.5,2.5 0 0 1 1088.5,1094 L690.5,1094 A2.5,2.5 0 0 1 688,1091.5 L688,828.5 A2.5,2.5 0 0 1 690.5,826 " fill="none" style="stroke:#000000;stroke-width:1.5;"/><line style="stroke:#000000;stroke-width:1.5;" x1="688" x2="749" y1="849.6094" y2="849.6094"/><text fill="#000000" font-family="sans-serif" font-size="14" font-weight="bold" lengthAdjust="spacing" textLength="48" x="692" y="842.5332">Beasts</text></g><!--MD5=[45968658e27f59befcc472d744b7f907]
cluster BeastClasses--><g id="cluster_BeastClasses"><path d="M714.5,952 L810.5,952 A3.75,3.75 0 0 1 813,954.5 L820,975.6094 L1064.5,975.6094 A2.5,2.5 0 0 1 1067,978.1094 L1067,1067.5 A2.5,2.5 0 0 1 1064.5,1070 L714.5,1070 A2.5,2.5 0 0 1 712,1067.5 L712,954.5 A2.5,2.5 0 0 1 714.5,952 " fill="none" style="stroke:#000000;stroke-width:1.5;"/><line style="stroke:#000000;stroke-width:1.5;" x1="712" x2="820" y1="975.6094" y2="975.6094"/><text fill="#000000" font-family="sans-serif" font-size="14" font-weight="bold" lengthAdjust="spacing" textLength="95" x="716" y="968.5332">BeastClasses</text></g><!--MD5=[2d0eddbd8391f3d8f7780082495f35ec]
class LOTRGame--><g id="elem_LOTRGame"><rect codeLine="6" fill="#F1F1F1" height="153.6563" id="LOTRGame" rx="2.5" ry="2.5" style="stroke:#181818;stroke-width:0.5;" width="116" x="652" y="42"/><ellipse cx="670.6" cy="58" fill="#ADD1B2" rx="11" ry="11" style="stroke:#181818;stroke-width:1.0;"/><path d="M673.3656,53.875 Q673.5219,53.6563 673.7094,53.5469 Q673.8969,53.4375 674.1156,53.4375 Q674.4906,53.4375 674.725,53.7031 Q674.9594,53.9531 674.9594,54.5625 L674.9594,56.0156 Q674.9594,56.625 674.725,56.8906 Q674.4906,57.1563 674.1156,57.1563 Q673.7719,57.1563 673.5688,56.9531 Q673.3656,56.7656 673.2563,56.25 Q673.2094,55.8906 673.0219,55.7031 Q672.6938,55.3281 672.0844,55.1094 Q671.475,54.8906 670.85,54.8906 Q670.0844,54.8906 669.4438,55.2188 Q668.8188,55.5469 668.3188,56.2969 Q667.8344,57.0469 667.8344,58.0781 L667.8344,59.1719 Q667.8344,60.4063 668.725,61.2344 Q669.6156,62.0469 671.2094,62.0469 Q672.1469,62.0469 672.8031,61.7969 Q673.1938,61.6406 673.6156,61.2031 Q673.8813,60.9375 674.0219,60.8594 Q674.1781,60.7813 674.3813,60.7813 Q674.7094,60.7813 674.9594,61.0469 Q675.225,61.2969 675.225,61.6406 Q675.225,61.9844 674.8813,62.3906 Q674.3813,62.9688 673.5844,63.2969 Q672.5063,63.75 671.2094,63.75 Q669.6938,63.75 668.4906,63.125 Q667.5063,62.625 666.8188,61.5625 Q666.1313,60.4844 666.1313,59.2031 L666.1313,58.0469 Q666.1313,56.7188 666.7406,55.5781 Q667.3656,54.4219 668.4594,53.8125 Q669.5531,53.1875 670.7875,53.1875 Q671.5219,53.1875 672.1625,53.3594 Q672.8188,53.5156 673.3656,53.875 Z " fill="#000000"/><text fill="#000000" font-family="sans-serif" font-size="14" lengthAdjust="spacing" textLength="76" x="685.4" y="63.7285">LOTRGame</text><line style="stroke:#181818;stroke-width:0.5;" x1="653" x2="767" y1="74" y2="74"/><rect fill="none" height="6" style="stroke:#C82930;stroke-width:1.0;" width="6" x="660" y="85.3047"/><text fill="#000000" font-family="sans-serif" font-size="14" lengthAdjust="spacing" textLength="89" x="672" y="92.5332">Armies armies</text><rect fill="none" height="6" style="stroke:#C82930;stroke-width:1.0;" width="6" x="660" y="102.9141"/><text fill="#000000" font-family="sans-serif" font-size="14" lengthAdjust="spacing" textLength="73" x="672" y="110.1426">Turns turns</text><rect fill="none" height="6" style="stroke:#C82930;stroke-width:1.0;" width="6" x="660" y="120.5234"/><text fill="#000000" font-family="sans-serif" font-size="14" lengthAdjust="spacing" textLength="79" x="672" y="127.752">Board board</text><rect fill="none" height="6" style="stroke:#C82930;stroke-width:1.0;" width="6" x="660" y="138.1328"/><text fill="#000000" font-family="sans-serif" font-size="14" lengthAdjust="spacing" textLength="43" x="672" y="145.3613">int size</text><line style="stroke:#181818;stroke-width:0.5;" x1="653" x2="767" y1="152.4375" y2="152.4375"/><ellipse cx="663" cy="166.7422" fill="#84BE84" rx="3" ry="3" style="stroke:#038048;stroke-width:1.0;"/><text fill="#000000" font-family="sans-serif" font-size="14" lengthAdjust="spacing" textLength="86" x="672" y="170.9707">LOTRGame()</text><ellipse cx="663" cy="184.3516" fill="#84BE84" rx="3" ry="3" style="stroke:#038048;stroke-width:1.0;"/><text fill="#000000" font-family="sans-serif" font-size="14" lengthAdjust="spacing" textLength="90" x="672" y="188.5801">void Execute()</text></g><!--MD5=[5ad7c20a932490b2a95846d7892e0233]
class Armies--><g id="elem_Armies"><rect codeLine="15" fill="#F1F1F1" height="136.0469" id="Armies" rx="2.5" ry="2.5" style="stroke:#181818;stroke-width:0.5;" width="167" x="502.5" y="452"/><ellipse cx="560.25" cy="468" fill="#ADD1B2" rx="11" ry="11" style="stroke:#181818;stroke-width:1.0;"/><path d="M563.0156,463.875 Q563.1719,463.6563 563.3594,463.5469 Q563.5469,463.4375 563.7656,463.4375 Q564.1406,463.4375 564.375,463.7031 Q564.6094,463.9531 564.6094,464.5625 L564.6094,466.0156 Q564.6094,466.625 564.375,466.8906 Q564.1406,467.1563 563.7656,467.1563 Q563.4219,467.1563 563.2188,466.9531 Q563.0156,466.7656 562.9063,466.25 Q562.8594,465.8906 562.6719,465.7031 Q562.3438,465.3281 561.7344,465.1094 Q561.125,464.8906 560.5,464.8906 Q559.7344,464.8906 559.0938,465.2188 Q558.4688,465.5469 557.9688,466.2969 Q557.4844,467.0469 557.4844,468.0781 L557.4844,469.1719 Q557.4844,470.4063 558.375,471.2344 Q559.2656,472.0469 560.8594,472.0469 Q561.7969,472.0469 562.4531,471.7969 Q562.8438,471.6406 563.2656,471.2031 Q563.5313,470.9375 563.6719,470.8594 Q563.8281,470.7813 564.0313,470.7813 Q564.3594,470.7813 564.6094,471.0469 Q564.875,471.2969 564.875,471.6406 Q564.875,471.9844 564.5313,472.3906 Q564.0313,472.9688 563.2344,473.2969 Q562.1563,473.75 560.8594,473.75 Q559.3438,473.75 558.1406,473.125 Q557.1563,472.625 556.4688,471.5625 Q555.7813,470.4844 555.7813,469.2031 L555.7813,468.0469 Q555.7813,466.7188 556.3906,465.5781 Q557.0156,464.4219 558.1094,463.8125 Q559.2031,463.1875 560.4375,463.1875 Q561.1719,463.1875 561.8125,463.3594 Q562.4688,463.5156 563.0156,463.875 Z " fill="#000000"/><text fill="#000000" font-family="sans-serif" font-size="14" lengthAdjust="spacing" textLength="43" x="580.75" y="473.7285">Armies</text><line style="stroke:#181818;stroke-width:0.5;" x1="503.5" x2="668.5" y1="484" y2="484"/><rect fill="none" height="6" style="stroke:#C82930;stroke-width:1.0;" width="6" x="510.5" y="495.3047"/><text fill="#000000" font-family="sans-serif" font-size="14" lengthAdjust="spacing" textLength="141" x="522.5" y="502.5332">Characters characters</text><line style="stroke:#181818;stroke-width:0.5;" x1="503.5" x2="668.5" y1="509.6094" y2="509.6094"/><ellipse cx="513.5" cy="523.9141" fill="#84BE84" rx="3" ry="3" style="stroke:#038048;stroke-width:1.0;"/><text fill="#000000" font-family="sans-serif" font-size="14" lengthAdjust="spacing" textLength="53" x="522.5" y="528.1426">Armies()</text><ellipse cx="513.5" cy="541.5234" fill="#84BE84" rx="3" ry="3" style="stroke:#038048;stroke-width:1.0;"/><text fill="#000000" font-family="sans-serif" font-size="14" lengthAdjust="spacing" textLength="74" x="522.5" y="545.752">void atack()</text><ellipse cx="513.5" cy="559.1328" fill="#84BE84" rx="3" ry="3" style="stroke:#038048;stroke-width:1.0;"/><text fill="#000000" font-family="sans-serif" font-size="14" lengthAdjust="spacing" textLength="84" x="522.5" y="563.3613">void defend()</text><ellipse cx="513.5" cy="576.7422" fill="#84BE84" rx="3" ry="3" style="stroke:#038048;stroke-width:1.0;"/><text fill="#000000" font-family="sans-serif" font-size="14" lengthAdjust="spacing" textLength="103" x="522.5" y="580.9707">void getArmies()</text></g><!--MD5=[1e345420f991abebf7e76d9ed436fd6b]
class Turns--><g id="elem_Turns"><rect codeLine="24" fill="#F1F1F1" height="136.0469" id="Turns" rx="2.5" ry="2.5" style="stroke:#181818;stroke-width:0.5;" width="181" x="619.5" y="256"/><ellipse cx="687.25" cy="272" fill="#ADD1B2" rx="11" ry="11" style="stroke:#181818;stroke-width:1.0;"/><path d="M690.0156,267.875 Q690.1719,267.6563 690.3594,267.5469 Q690.5469,267.4375 690.7656,267.4375 Q691.1406,267.4375 691.375,267.7031 Q691.6094,267.9531 691.6094,268.5625 L691.6094,270.0156 Q691.6094,270.625 691.375,270.8906 Q691.1406,271.1563 690.7656,271.1563 Q690.4219,271.1563 690.2188,270.9531 Q690.0156,270.7656 689.9063,270.25 Q689.8594,269.8906 689.6719,269.7031 Q689.3438,269.3281 688.7344,269.1094 Q688.125,268.8906 687.5,268.8906 Q686.7344,268.8906 686.0938,269.2188 Q685.4688,269.5469 684.9688,270.2969 Q684.4844,271.0469 684.4844,272.0781 L684.4844,273.1719 Q684.4844,274.4063 685.375,275.2344 Q686.2656,276.0469 687.8594,276.0469 Q688.7969,276.0469 689.4531,275.7969 Q689.8438,275.6406 690.2656,275.2031 Q690.5313,274.9375 690.6719,274.8594 Q690.8281,274.7813 691.0313,274.7813 Q691.3594,274.7813 691.6094,275.0469 Q691.875,275.2969 691.875,275.6406 Q691.875,275.9844 691.5313,276.3906 Q691.0313,276.9688 690.2344,277.2969 Q689.1563,277.75 687.8594,277.75 Q686.3438,277.75 685.1406,277.125 Q684.1563,276.625 683.4688,275.5625 Q682.7813,274.4844 682.7813,273.2031 L682.7813,272.0469 Q682.7813,270.7188 683.3906,269.5781 Q684.0156,268.4219 685.1094,267.8125 Q686.2031,267.1875 687.4375,267.1875 Q688.1719,267.1875 688.8125,267.3594 Q689.4688,267.5156 690.0156,267.875 Z " fill="#000000"/><text fill="#000000" font-family="sans-serif" font-size="14" lengthAdjust="spacing" textLength="37" x="707.75" y="277.7285">Turns</text><line style="stroke:#181818;stroke-width:0.5;" x1="620.5" x2="799.5" y1="288" y2="288"/><rect fill="none" height="6" style="stroke:#C82930;stroke-width:1.0;" width="6" x="627.5" y="299.3047"/><text fill="#000000" font-family="sans-serif" font-size="14" lengthAdjust="spacing" textLength="89" x="639.5" y="306.5332">Armies armies</text><rect fill="none" height="6" style="stroke:#C82930;stroke-width:1.0;" width="6" x="627.5" y="316.9141"/><text fill="#000000" font-family="sans-serif" font-size="14" lengthAdjust="spacing" textLength="79" x="639.5" y="324.1426">Board board</text><line style="stroke:#181818;stroke-width:0.5;" x1="620.5" x2="799.5" y1="331.2188" y2="331.2188"/><ellipse cx="630.5" cy="345.5234" fill="#84BE84" rx="3" ry="3" style="stroke:#038048;stroke-width:1.0;"/><text fill="#000000" font-family="sans-serif" font-size="14" lengthAdjust="spacing" textLength="47" x="639.5" y="349.752">Turns()</text><ellipse cx="630.5" cy="363.1328" fill="#84BE84" rx="3" ry="3" style="stroke:#038048;stroke-width:1.0;"/><text fill="#000000" font-family="sans-serif" font-size="14" lengthAdjust="spacing" textLength="99" x="639.5" y="367.3613">void getAttack()</text><ellipse cx="630.5" cy="380.7422" fill="#84BE84" rx="3" ry="3" style="stroke:#038048;stroke-width:1.0;"/><text fill="#000000" font-family="sans-serif" font-size="14" lengthAdjust="spacing" textLength="155" x="639.5" y="384.9707">void getUpdatePosition()</text></g><!--MD5=[9563755d011c5cec7ec66dc53565a59e]
class Board--><g id="elem_Board"><rect codeLine="33" fill="#F1F1F1" height="100.8281" id="Board" rx="2.5" ry="2.5" style="stroke:#181818;stroke-width:0.5;" width="247" x="710.5" y="469.5"/><ellipse cx="810.75" cy="485.5" fill="#ADD1B2" rx="11" ry="11" style="stroke:#181818;stroke-width:1.0;"/><path d="M813.5156,481.375 Q813.6719,481.1563 813.8594,481.0469 Q814.0469,480.9375 814.2656,480.9375 Q814.6406,480.9375 814.875,481.2031 Q815.1094,481.4531 815.1094,482.0625 L815.1094,483.5156 Q815.1094,484.125 814.875,484.3906 Q814.6406,484.6563 814.2656,484.6563 Q813.9219,484.6563 813.7188,484.4531 Q813.5156,484.2656 813.4063,483.75 Q813.3594,483.3906 813.1719,483.2031 Q812.8438,482.8281 812.2344,482.6094 Q811.625,482.3906 811,482.3906 Q810.2344,482.3906 809.5938,482.7188 Q808.9688,483.0469 808.4688,483.7969 Q807.9844,484.5469 807.9844,485.5781 L807.9844,486.6719 Q807.9844,487.9063 808.875,488.7344 Q809.7656,489.5469 811.3594,489.5469 Q812.2969,489.5469 812.9531,489.2969 Q813.3438,489.1406 813.7656,488.7031 Q814.0313,488.4375 814.1719,488.3594 Q814.3281,488.2813 814.5313,488.2813 Q814.8594,488.2813 815.1094,488.5469 Q815.375,488.7969 815.375,489.1406 Q815.375,489.4844 815.0313,489.8906 Q814.5313,490.4688 813.7344,490.7969 Q812.6563,491.25 811.3594,491.25 Q809.8438,491.25 808.6406,490.625 Q807.6563,490.125 806.9688,489.0625 Q806.2813,487.9844 806.2813,486.7031 L806.2813,485.5469 Q806.2813,484.2188 806.8906,483.0781 Q807.5156,481.9219 808.6094,481.3125 Q809.7031,480.6875 810.9375,480.6875 Q811.6719,480.6875 812.3125,480.8594 Q812.9688,481.0156 813.5156,481.375 Z " fill="#000000"/><text fill="#000000" font-family="sans-serif" font-size="14" lengthAdjust="spacing" textLength="38" x="831.25" y="491.2285">Board</text><line style="stroke:#181818;stroke-width:0.5;" x1="711.5" x2="956.5" y1="501.5" y2="501.5"/><rect fill="none" height="6" style="stroke:#C82930;stroke-width:1.0;" width="6" x="718.5" y="512.8047"/><text fill="#000000" font-family="sans-serif" font-size="14" lengthAdjust="spacing" textLength="221" x="730.5" y="520.0332">ArrayList&lt;Characters&gt; characteres</text><line style="stroke:#181818;stroke-width:0.5;" x1="711.5" x2="956.5" y1="527.1094" y2="527.1094"/><ellipse cx="721.5" cy="541.4141" fill="#84BE84" rx="3" ry="3" style="stroke:#038048;stroke-width:1.0;"/><text fill="#000000" font-family="sans-serif" font-size="14" lengthAdjust="spacing" textLength="48" x="730.5" y="545.6426">Board()</text><ellipse cx="721.5" cy="559.0234" fill="#84BE84" rx="3" ry="3" style="stroke:#038048;stroke-width:1.0;"/><text fill="#000000" font-family="sans-serif" font-size="14" lengthAdjust="spacing" textLength="109" x="730.5" y="563.252">void setPosition()</text></g><!--MD5=[ab50d96312d8d6384574b269de1f44e9]
class Characters--><g id="elem_Characters"><rect codeLine="43" fill="#F1F1F1" height="153.6563" id="Characters" rx="2.5" ry="2.5" style="stroke:#181818;stroke-width:0.5;" width="150" x="511" y="648"/><ellipse cx="547.6" cy="664" fill="#A9DCDF" rx="11" ry="11" style="stroke:#181818;stroke-width:1.0;"/><path d="M549.7875,665.7656 L545.6469,665.7656 L545.225,666.7969 L545.6469,666.7969 Q546.2563,666.7969 546.5219,667.0313 Q546.7875,667.2656 546.7875,667.6563 Q546.7875,668.0313 546.5219,668.2656 Q546.2563,668.5 545.6469,668.5 L543.35,668.5 Q542.7406,668.5 542.4906,668.2656 Q542.225,668.0313 542.225,667.6406 Q542.225,667.2656 542.5063,667.0313 Q542.7719,666.7813 543.3969,666.7969 L546.0688,660.1406 L544.9594,660.1406 Q544.35,660.1406 544.0844,659.9063 Q543.8188,659.6719 543.8188,659.2813 Q543.8188,658.9063 544.0844,658.6719 Q544.35,658.4375 544.9594,658.4375 L548.6313,658.4375 L552.0219,666.7969 Q552.6156,666.7969 552.8031,666.9375 Q553.1938,667.2031 553.1938,667.6563 Q553.1938,668.0313 552.9281,668.2656 Q552.6781,668.5 552.0688,668.5 L549.7719,668.5 Q549.1625,668.5 548.8969,668.2656 Q548.6313,668.0313 548.6313,667.6406 Q548.6313,667.2656 548.8969,667.0313 Q549.1625,666.7969 549.7719,666.7969 L550.1938,666.7969 L549.7875,665.7656 Z M549.0688,664.0625 L547.7094,660.6875 L546.3344,664.0625 L549.0688,664.0625 Z " fill="#000000"/><text fill="#000000" font-family="sans-serif" font-size="14" font-style="italic" lengthAdjust="spacing" textLength="70" x="566.4" y="669.7285">Characters</text><line style="stroke:#181818;stroke-width:0.5;" x1="512" x2="660" y1="680" y2="680"/><polygon fill="none" points="522,689.3047,526,693.3047,522,697.3047,518,693.3047" style="stroke:#B38D22;stroke-width:1.0;"/><text fill="#000000" font-family="sans-serif" font-size="14" lengthAdjust="spacing" textLength="76" x="531" y="698.5332">String name</text><polygon fill="none" points="522,706.9141,526,710.9141,522,714.9141,518,710.9141" style="stroke:#B38D22;stroke-width:1.0;"/><text fill="#000000" font-family="sans-serif" font-size="14" lengthAdjust="spacing" textLength="90" x="531" y="716.1426">int healthPoint</text><polygon fill="none" points="522,724.5234,526,728.5234,522,732.5234,518,728.5234" style="stroke:#B38D22;stroke-width:1.0;"/><text fill="#000000" font-family="sans-serif" font-size="14" lengthAdjust="spacing" textLength="68" x="531" y="733.752">int position</text><polygon fill="none" points="522,742.1328,526,746.1328,522,750.1328,518,746.1328" style="stroke:#B38D22;stroke-width:1.0;"/><text fill="#000000" font-family="sans-serif" font-size="14" lengthAdjust="spacing" textLength="124" x="531" y="751.3613">boolean aliveStatus</text><line style="stroke:#181818;stroke-width:0.5;" x1="512" x2="660" y1="758.4375" y2="758.4375"/><ellipse cx="522" cy="772.7422" fill="#84BE84" rx="3" ry="3" style="stroke:#038048;stroke-width:1.0;"/><text fill="#000000" font-family="sans-serif" font-size="14" lengthAdjust="spacing" textLength="74" x="531" y="776.9707">void atack()</text><ellipse cx="522" cy="790.3516" fill="#84BE84" rx="3" ry="3" style="stroke:#038048;stroke-width:1.0;"/><text fill="#000000" font-family="sans-serif" font-size="14" lengthAdjust="spacing" textLength="95" x="531" y="794.5801">void getAtack()</text></g><!--MD5=[7537a002918718365e1ee1a97b8d3f6b]
class Heroes--><g id="elem_Heroes"><rect codeLine="54" fill="#F1F1F1" height="65.6094" id="Heroes" rx="2.5" ry="2.5" style="stroke:#181818;stroke-width:0.5;" width="142" x="350" y="862"/><ellipse cx="393.8" cy="878" fill="#B4A7E5" rx="11" ry="11" style="stroke:#181818;stroke-width:1.0;"/><path d="M394.7531,874.6406 L394.7531,881.2969 L396.4719,881.2969 Q397.0813,881.2969 397.3469,881.5313 Q397.6125,881.7656 397.6125,882.1563 Q397.6125,882.5313 397.3469,882.7656 Q397.0813,883 396.4719,883 L391.3313,883 Q390.7219,883 390.4563,882.7656 Q390.1906,882.5313 390.1906,882.1406 Q390.1906,881.7656 390.4563,881.5313 Q390.7219,881.2969 391.3313,881.2969 L393.05,881.2969 L393.05,874.6406 L391.3313,874.6406 Q390.7219,874.6406 390.4563,874.4063 Q390.1906,874.1719 390.1906,873.7813 Q390.1906,873.4063 390.4563,873.1719 Q390.7219,872.9375 391.3313,872.9375 L396.4719,872.9375 Q397.0813,872.9375 397.3469,873.1719 Q397.6125,873.4063 397.6125,873.7813 Q397.6125,874.1719 397.3469,874.4063 Q397.0813,874.6406 396.4719,874.6406 L394.7531,874.6406 Z " fill="#000000"/><text fill="#000000" font-family="sans-serif" font-size="14" font-style="italic" lengthAdjust="spacing" textLength="46" x="414.2" y="883.7285">Heroes</text><line style="stroke:#181818;stroke-width:0.5;" x1="351" x2="491" y1="894" y2="894"/><line style="stroke:#181818;stroke-width:0.5;" x1="351" x2="491" y1="902" y2="902"/><ellipse cx="361" cy="916.3047" fill="#84BE84" rx="3" ry="3" style="stroke:#038048;stroke-width:1.0;"/><text fill="#000000" font-family="sans-serif" font-size="14" lengthAdjust="spacing" textLength="116" x="370" y="920.5332">Int randomPower()</text></g><!--MD5=[a0e5e0b3cebd72afcfadfe4c79ea89c4]
class Elves--><g id="elem_Elves"><rect codeLine="61" fill="#F1F1F1" height="65.6094" id="Elves" rx="2.5" ry="2.5" style="stroke:#181818;stroke-width:0.5;" width="180" x="444" y="988"/><ellipse cx="512.75" cy="1004" fill="#ADD1B2" rx="11" ry="11" style="stroke:#181818;stroke-width:1.0;"/><path d="M515.5156,999.875 Q515.6719,999.6563 515.8594,999.5469 Q516.0469,999.4375 516.2656,999.4375 Q516.6406,999.4375 516.875,999.7031 Q517.1094,999.9531 517.1094,1000.5625 L517.1094,1002.0156 Q517.1094,1002.625 516.875,1002.8906 Q516.6406,1003.1563 516.2656,1003.1563 Q515.9219,1003.1563 515.7188,1002.9531 Q515.5156,1002.7656 515.4063,1002.25 Q515.3594,1001.8906 515.1719,1001.7031 Q514.8438,1001.3281 514.2344,1001.1094 Q513.625,1000.8906 513,1000.8906 Q512.2344,1000.8906 511.5938,1001.2188 Q510.9688,1001.5469 510.4688,1002.2969 Q509.9844,1003.0469 509.9844,1004.0781 L509.9844,1005.1719 Q509.9844,1006.4063 510.875,1007.2344 Q511.7656,1008.0469 513.3594,1008.0469 Q514.2969,1008.0469 514.9531,1007.7969 Q515.3438,1007.6406 515.7656,1007.2031 Q516.0313,1006.9375 516.1719,1006.8594 Q516.3281,1006.7813 516.5313,1006.7813 Q516.8594,1006.7813 517.1094,1007.0469 Q517.375,1007.2969 517.375,1007.6406 Q517.375,1007.9844 517.0313,1008.3906 Q516.5313,1008.9688 515.7344,1009.2969 Q514.6563,1009.75 513.3594,1009.75 Q511.8438,1009.75 510.6406,1009.125 Q509.6563,1008.625 508.9688,1007.5625 Q508.2813,1006.4844 508.2813,1005.2031 L508.2813,1004.0469 Q508.2813,1002.7188 508.8906,1001.5781 Q509.5156,1000.4219 510.6094,999.8125 Q511.7031,999.1875 512.9375,999.1875 Q513.6719,999.1875 514.3125,999.3594 Q514.9688,999.5156 515.5156,999.875 Z " fill="#000000"/><text fill="#000000" font-family="sans-serif" font-size="14" lengthAdjust="spacing" textLength="34" x="533.25" y="1009.7285">Elves</text><line style="stroke:#181818;stroke-width:0.5;" x1="445" x2="623" y1="1020" y2="1020"/><ellipse cx="455" cy="1034.3047" fill="none" rx="3" ry="3" style="stroke:#038048;stroke-width:1.0;"/><text fill="#000000" font-family="sans-serif" font-size="14" lengthAdjust="spacing" textLength="154" x="464" y="1038.5332">final int hateAgainstOrcs</text><line style="stroke:#181818;stroke-width:0.5;" x1="445" x2="623" y1="1045.6094" y2="1045.6094"/></g><!--MD5=[b47dcbeb058f571ed939427a2c80d024]
class Hobbits--><g id="elem_Hobbits"><rect codeLine="65" fill="#F1F1F1" height="65.6094" id="Hobbits" rx="2.5" ry="2.5" style="stroke:#181818;stroke-width:0.5;" width="199" x="209.5" y="988"/><ellipse cx="281.25" cy="1004" fill="#ADD1B2" rx="11" ry="11" style="stroke:#181818;stroke-width:1.0;"/><path d="M284.0156,999.875 Q284.1719,999.6563 284.3594,999.5469 Q284.5469,999.4375 284.7656,999.4375 Q285.1406,999.4375 285.375,999.7031 Q285.6094,999.9531 285.6094,1000.5625 L285.6094,1002.0156 Q285.6094,1002.625 285.375,1002.8906 Q285.1406,1003.1563 284.7656,1003.1563 Q284.4219,1003.1563 284.2188,1002.9531 Q284.0156,1002.7656 283.9063,1002.25 Q283.8594,1001.8906 283.6719,1001.7031 Q283.3438,1001.3281 282.7344,1001.1094 Q282.125,1000.8906 281.5,1000.8906 Q280.7344,1000.8906 280.0938,1001.2188 Q279.4688,1001.5469 278.9688,1002.2969 Q278.4844,1003.0469 278.4844,1004.0781 L278.4844,1005.1719 Q278.4844,1006.4063 279.375,1007.2344 Q280.2656,1008.0469 281.8594,1008.0469 Q282.7969,1008.0469 283.4531,1007.7969 Q283.8438,1007.6406 284.2656,1007.2031 Q284.5313,1006.9375 284.6719,1006.8594 Q284.8281,1006.7813 285.0313,1006.7813 Q285.3594,1006.7813 285.6094,1007.0469 Q285.875,1007.2969 285.875,1007.6406 Q285.875,1007.9844 285.5313,1008.3906 Q285.0313,1008.9688 284.2344,1009.2969 Q283.1563,1009.75 281.8594,1009.75 Q280.3438,1009.75 279.1406,1009.125 Q278.1563,1008.625 277.4688,1007.5625 Q276.7813,1006.4844 276.7813,1005.2031 L276.7813,1004.0469 Q276.7813,1002.7188 277.3906,1001.5781 Q278.0156,1000.4219 279.1094,999.8125 Q280.2031,999.1875 281.4375,999.1875 Q282.1719,999.1875 282.8125,999.3594 Q283.4688,999.5156 284.0156,999.875 Z " fill="#000000"/><text fill="#000000" font-family="sans-serif" font-size="14" lengthAdjust="spacing" textLength="47" x="301.75" y="1009.7285">Hobbits</text><line style="stroke:#181818;stroke-width:0.5;" x1="210.5" x2="407.5" y1="1020" y2="1020"/><ellipse cx="220.5" cy="1034.3047" fill="none" rx="3" ry="3" style="stroke:#038048;stroke-width:1.0;"/><text fill="#000000" font-family="sans-serif" font-size="14" lengthAdjust="spacing" textLength="173" x="229.5" y="1038.5332">final int fearAgainstTrasgos</text><line style="stroke:#181818;stroke-width:0.5;" x1="210.5" x2="407.5" y1="1045.6094" y2="1045.6094"/></g><!--MD5=[2e69174041fa7eb3bebc5f460ee56291]
class Human--><g id="elem_Human"><rect codeLine="68" fill="#F1F1F1" height="65.6094" id="Human" rx="2.5" ry="2.5" style="stroke:#181818;stroke-width:0.5;" width="80" x="94" y="988"/><ellipse cx="110.8" cy="1004" fill="#ADD1B2" rx="11" ry="11" style="stroke:#181818;stroke-width:1.0;"/><path d="M113.5656,999.875 Q113.7219,999.6563 113.9094,999.5469 Q114.0969,999.4375 114.3156,999.4375 Q114.6906,999.4375 114.925,999.7031 Q115.1594,999.9531 115.1594,1000.5625 L115.1594,1002.0156 Q115.1594,1002.625 114.925,1002.8906 Q114.6906,1003.1563 114.3156,1003.1563 Q113.9719,1003.1563 113.7688,1002.9531 Q113.5656,1002.7656 113.4563,1002.25 Q113.4094,1001.8906 113.2219,1001.7031 Q112.8938,1001.3281 112.2844,1001.1094 Q111.675,1000.8906 111.05,1000.8906 Q110.2844,1000.8906 109.6438,1001.2188 Q109.0188,1001.5469 108.5188,1002.2969 Q108.0344,1003.0469 108.0344,1004.0781 L108.0344,1005.1719 Q108.0344,1006.4063 108.925,1007.2344 Q109.8156,1008.0469 111.4094,1008.0469 Q112.3469,1008.0469 113.0031,1007.7969 Q113.3938,1007.6406 113.8156,1007.2031 Q114.0813,1006.9375 114.2219,1006.8594 Q114.3781,1006.7813 114.5813,1006.7813 Q114.9094,1006.7813 115.1594,1007.0469 Q115.425,1007.2969 115.425,1007.6406 Q115.425,1007.9844 115.0813,1008.3906 Q114.5813,1008.9688 113.7844,1009.2969 Q112.7063,1009.75 111.4094,1009.75 Q109.8938,1009.75 108.6906,1009.125 Q107.7063,1008.625 107.0188,1007.5625 Q106.3313,1006.4844 106.3313,1005.2031 L106.3313,1004.0469 Q106.3313,1002.7188 106.9406,1001.5781 Q107.5656,1000.4219 108.6594,999.8125 Q109.7531,999.1875 110.9875,999.1875 Q111.7219,999.1875 112.3625,999.3594 Q113.0188,999.5156 113.5656,999.875 Z " fill="#000000"/><text fill="#000000" font-family="sans-serif" font-size="14" lengthAdjust="spacing" textLength="44" x="125.2" y="1009.7285">Human</text><line style="stroke:#181818;stroke-width:0.5;" x1="95" x2="173" y1="1020" y2="1020"/><line style="stroke:#181818;stroke-width:0.5;" x1="95" x2="173" y1="1028" y2="1028"/><ellipse cx="105" cy="1042.3047" fill="#84BE84" rx="3" ry="3" style="stroke:#038048;stroke-width:1.0;"/><text fill="#000000" font-family="sans-serif" font-size="14" lengthAdjust="spacing" textLength="54" x="114" y="1046.5332">Human()</text></g><!--MD5=[5b780731a2a9d1dec31dc9b38487c8f2]
class Beasts--><g id="elem_Beasts"><rect codeLine="76" fill="#F1F1F1" height="65.6094" id="Beasts" rx="2.5" ry="2.5" style="stroke:#181818;stroke-width:0.5;" width="142" x="704" y="862"/><ellipse cx="749.25" cy="878" fill="#B4A7E5" rx="11" ry="11" style="stroke:#181818;stroke-width:1.0;"/><path d="M750.2031,874.6406 L750.2031,881.2969 L751.9219,881.2969 Q752.5313,881.2969 752.7969,881.5313 Q753.0625,881.7656 753.0625,882.1563 Q753.0625,882.5313 752.7969,882.7656 Q752.5313,883 751.9219,883 L746.7813,883 Q746.1719,883 745.9063,882.7656 Q745.6406,882.5313 745.6406,882.1406 Q745.6406,881.7656 745.9063,881.5313 Q746.1719,881.2969 746.7813,881.2969 L748.5,881.2969 L748.5,874.6406 L746.7813,874.6406 Q746.1719,874.6406 745.9063,874.4063 Q745.6406,874.1719 745.6406,873.7813 Q745.6406,873.4063 745.9063,873.1719 Q746.1719,872.9375 746.7813,872.9375 L751.9219,872.9375 Q752.5313,872.9375 752.7969,873.1719 Q753.0625,873.4063 753.0625,873.7813 Q753.0625,874.1719 752.7969,874.4063 Q752.5313,874.6406 751.9219,874.6406 L750.2031,874.6406 Z " fill="#000000"/><text fill="#000000" font-family="sans-serif" font-size="14" font-style="italic" lengthAdjust="spacing" textLength="43" x="769.75" y="883.7285">Beasts</text><line style="stroke:#181818;stroke-width:0.5;" x1="705" x2="845" y1="894" y2="894"/><line style="stroke:#181818;stroke-width:0.5;" x1="705" x2="845" y1="902" y2="902"/><ellipse cx="715" cy="916.3047" fill="#84BE84" rx="3" ry="3" style="stroke:#038048;stroke-width:1.0;"/><text fill="#000000" font-family="sans-serif" font-size="14" lengthAdjust="spacing" textLength="116" x="724" y="920.5332">Int randomPower()</text></g><!--MD5=[b60b2cb205638f2205010d1918306c41]
class Orcs--><g id="elem_Orcs"><rect codeLine="81" fill="#F1F1F1" height="65.6094" id="Orcs" rx="2.5" ry="2.5" style="stroke:#181818;stroke-width:0.5;" width="199" x="851.5" y="988"/><ellipse cx="931.75" cy="1004" fill="#ADD1B2" rx="11" ry="11" style="stroke:#181818;stroke-width:1.0;"/><path d="M934.5156,999.875 Q934.6719,999.6563 934.8594,999.5469 Q935.0469,999.4375 935.2656,999.4375 Q935.6406,999.4375 935.875,999.7031 Q936.1094,999.9531 936.1094,1000.5625 L936.1094,1002.0156 Q936.1094,1002.625 935.875,1002.8906 Q935.6406,1003.1563 935.2656,1003.1563 Q934.9219,1003.1563 934.7188,1002.9531 Q934.5156,1002.7656 934.4063,1002.25 Q934.3594,1001.8906 934.1719,1001.7031 Q933.8438,1001.3281 933.2344,1001.1094 Q932.625,1000.8906 932,1000.8906 Q931.2344,1000.8906 930.5938,1001.2188 Q929.9688,1001.5469 929.4688,1002.2969 Q928.9844,1003.0469 928.9844,1004.0781 L928.9844,1005.1719 Q928.9844,1006.4063 929.875,1007.2344 Q930.7656,1008.0469 932.3594,1008.0469 Q933.2969,1008.0469 933.9531,1007.7969 Q934.3438,1007.6406 934.7656,1007.2031 Q935.0313,1006.9375 935.1719,1006.8594 Q935.3281,1006.7813 935.5313,1006.7813 Q935.8594,1006.7813 936.1094,1007.0469 Q936.375,1007.2969 936.375,1007.6406 Q936.375,1007.9844 936.0313,1008.3906 Q935.5313,1008.9688 934.7344,1009.2969 Q933.6563,1009.75 932.3594,1009.75 Q930.8438,1009.75 929.6406,1009.125 Q928.6563,1008.625 927.9688,1007.5625 Q927.2813,1006.4844 927.2813,1005.2031 L927.2813,1004.0469 Q927.2813,1002.7188 927.8906,1001.5781 Q928.5156,1000.4219 929.6094,999.8125 Q930.7031,999.1875 931.9375,999.1875 Q932.6719,999.1875 933.3125,999.3594 Q933.9688,999.5156 934.5156,999.875 Z " fill="#000000"/><text fill="#000000" font-family="sans-serif" font-size="14" lengthAdjust="spacing" textLength="30" x="952.25" y="1009.7285">Orcs</text><line style="stroke:#181818;stroke-width:0.5;" x1="852.5" x2="1049.5" y1="1020" y2="1020"/><ellipse cx="862.5" cy="1034.3047" fill="none" rx="3" ry="3" style="stroke:#038048;stroke-width:1.0;"/><text fill="#000000" font-family="sans-serif" font-size="14" lengthAdjust="spacing" textLength="173" x="871.5" y="1038.5332">int strengthBonusAgainstAll</text><line style="stroke:#181818;stroke-width:0.5;" x1="852.5" x2="1049.5" y1="1045.6094" y2="1045.6094"/></g><!--MD5=[831aae89aa3de1a71a60497b68aabfbb]
class Trasgos--><g id="elem_Trasgos"><rect codeLine="84" fill="#F1F1F1" height="65.6094" id="Trasgos" rx="2.5" ry="2.5" style="stroke:#181818;stroke-width:0.5;" width="88" x="728" y="988"/><ellipse cx="744.8" cy="1004" fill="#ADD1B2" rx="11" ry="11" style="stroke:#181818;stroke-width:1.0;"/><path d="M747.5656,999.875 Q747.7219,999.6563 747.9094,999.5469 Q748.0969,999.4375 748.3156,999.4375 Q748.6906,999.4375 748.925,999.7031 Q749.1594,999.9531 749.1594,1000.5625 L749.1594,1002.0156 Q749.1594,1002.625 748.925,1002.8906 Q748.6906,1003.1563 748.3156,1003.1563 Q747.9719,1003.1563 747.7688,1002.9531 Q747.5656,1002.7656 747.4563,1002.25 Q747.4094,1001.8906 747.2219,1001.7031 Q746.8938,1001.3281 746.2844,1001.1094 Q745.675,1000.8906 745.05,1000.8906 Q744.2844,1000.8906 743.6438,1001.2188 Q743.0188,1001.5469 742.5188,1002.2969 Q742.0344,1003.0469 742.0344,1004.0781 L742.0344,1005.1719 Q742.0344,1006.4063 742.925,1007.2344 Q743.8156,1008.0469 745.4094,1008.0469 Q746.3469,1008.0469 747.0031,1007.7969 Q747.3938,1007.6406 747.8156,1007.2031 Q748.0813,1006.9375 748.2219,1006.8594 Q748.3781,1006.7813 748.5813,1006.7813 Q748.9094,1006.7813 749.1594,1007.0469 Q749.425,1007.2969 749.425,1007.6406 Q749.425,1007.9844 749.0813,1008.3906 Q748.5813,1008.9688 747.7844,1009.2969 Q746.7063,1009.75 745.4094,1009.75 Q743.8938,1009.75 742.6906,1009.125 Q741.7063,1008.625 741.0188,1007.5625 Q740.3313,1006.4844 740.3313,1005.2031 L740.3313,1004.0469 Q740.3313,1002.7188 740.9406,1001.5781 Q741.5656,1000.4219 742.6594,999.8125 Q743.7531,999.1875 744.9875,999.1875 Q745.7219,999.1875 746.3625,999.3594 Q747.0188,999.5156 747.5656,999.875 Z " fill="#000000"/><text fill="#000000" font-family="sans-serif" font-size="14" lengthAdjust="spacing" textLength="52" x="759.2" y="1009.7285">Trasgos</text><line style="stroke:#181818;stroke-width:0.5;" x1="729" x2="815" y1="1020" y2="1020"/><line style="stroke:#181818;stroke-width:0.5;" x1="729" x2="815" y1="1028" y2="1028"/><ellipse cx="739" cy="1042.3047" fill="#84BE84" rx="3" ry="3" style="stroke:#038048;stroke-width:1.0;"/><text fill="#000000" font-family="sans-serif" font-size="14" lengthAdjust="spacing" textLength="62" x="748" y="1046.5332">Trasgos()</text></g><!--MD5=[bcab1fa5bb44ae8272f78d723ffe4f98]
reverse link LOTRGame to Armies--><g id="link_LOTRGame_Armies"><path codeLine="94" d="M643.36,187.35 C626.96,207.81 611.41,231.43 602,256 C577.77,319.22 576.21,397.24 579.21,451.82 " fill="none" id="LOTRGame-backto-Armies" style="stroke:#181818;stroke-width:1.0;"/><polygon fill="#181818" points="651.72,177.26,644.8133,179.3329,644.0703,186.5056,650.977,184.4327,651.72,177.26" style="stroke:#181818;stroke-width:1.0;"/></g><!--MD5=[3b8f2df7e84b839cd9df0ab15d638f14]
reverse link LOTRGame to Turns--><g id="link_LOTRGame_Turns"><path codeLine="95" d="M710,209.17 C710,224.81 710,240.84 710,255.75 " fill="none" id="LOTRGame-backto-Turns" style="stroke:#181818;stroke-width:1.0;"/><polygon fill="#181818" points="710,196.17,706,202.17,710,208.17,714,202.17,710,196.17" style="stroke:#181818;stroke-width:1.0;"/></g><!--MD5=[83e101e982b65075d3e31e81eda99c43]
reverse link LOTRGame to Board--><g id="link_LOTRGame_Board"><path codeLine="96" d="M776.64,187.35 C793.04,207.81 808.59,231.43 818,256 C844.93,326.27 843.86,414.82 839.65,469.15 " fill="none" id="LOTRGame-backto-Board" style="stroke:#181818;stroke-width:1.0;"/><polygon fill="#181818" points="768.28,177.26,769.023,184.4327,775.9297,186.5056,775.1867,179.3329,768.28,177.26" style="stroke:#181818;stroke-width:1.0;"/></g><!--MD5=[44956628f43267b902bba3b1d34dfe19]
link Turns to Board--><g id="link_Turns_Board"><path codeLine="98" d="M752.85,392.04 C768.07,415.86 785.01,442.35 799.45,464.95 " fill="none" id="Turns-to-Board" style="stroke:#181818;stroke-width:1.0;"/><polygon fill="#181818" points="802.31,469.41,800.8464,459.6705,799.6228,465.1935,794.0999,463.9699,802.31,469.41" style="stroke:#181818;stroke-width:1.0;"/></g><!--MD5=[bd8b164f595f7059ebe97cbbe800fc39]
link Turns to Armies--><g id="link_Turns_Armies"><path codeLine="99" d="M667.15,392.04 C655.73,409.91 643.35,429.28 631.77,447.39 " fill="none" id="Turns-to-Armies" style="stroke:#181818;stroke-width:1.0;"/><polygon fill="#181818" points="628.85,451.96,637.0601,446.5199,631.5372,447.7435,630.3136,442.2205,628.85,451.96" style="stroke:#181818;stroke-width:1.0;"/></g><!--MD5=[aa70ccd84f5aa76d177ffb73dde0734a]
reverse link Armies to Characters--><g id="link_Armies_Characters"><path codeLine="101" d="M586,601.31 C586,616.66 586,632.69 586,647.91 " fill="none" id="Armies-backto-Characters" style="stroke:#181818;stroke-width:1.0;"/><polygon fill="#181818" points="586,588.03,582,594.03,586,600.03,590,594.03,586,588.03" style="stroke:#181818;stroke-width:1.0;"/></g><!--MD5=[3ed7a9a38ee91e74e2103c5c939b62ba]
link Characters to Heroes--><g id="link_Characters_Heroes"><path codeLine="103" d="M511.22,802.14 C492.04,821.67 472.29,841.77 456.18,858.18 " fill="none" id="Characters-to-Heroes" style="stroke:#181818;stroke-width:1.0;"/><polygon fill="#181818" points="452.59,861.83,461.7462,858.2018,456.0896,858.2589,456.0325,852.6024,452.59,861.83" style="stroke:#181818;stroke-width:1.0;"/></g><!--MD5=[cd1959170c4a2663d6afe2c896177146]
link Characters to Beasts--><g id="link_Characters_Beasts"><path codeLine="104" d="M661.24,792.88 C686.44,815.28 713.54,839.37 734.97,858.42 " fill="none" id="Characters-to-Beasts" style="stroke:#181818;stroke-width:1.0;"/><polygon fill="#181818" points="738.9,861.92,734.8499,852.9424,735.1701,858.5902,729.5223,858.9103,738.9,861.92" style="stroke:#181818;stroke-width:1.0;"/></g><!--MD5=[5ffbcad1e403b40097fc8282524a6433]
link Heroes to Elves--><g id="link_Heroes_Elves"><path codeLine="106" d="M450.39,928.26 C465.96,945.33 485.12,966.36 501.17,983.97 " fill="none" id="Heroes-to-Elves" style="stroke:#181818;stroke-width:1.0;"/><polygon fill="#181818" points="504.75,987.91,501.6449,978.5634,501.3824,984.2142,495.7316,983.9516,504.75,987.91" style="stroke:#181818;stroke-width:1.0;"/></g><!--MD5=[57a1111884cfa0c36db139f156211863]
link Heroes to Hobbits--><g id="link_Heroes_Hobbits"><path codeLine="107" d="M391.87,928.26 C376.44,945.33 357.45,966.36 341.54,983.97 " fill="none" id="Heroes-to-Hobbits" style="stroke:#181818;stroke-width:1.0;"/><polygon fill="#181818" points="337.99,987.91,346.9924,983.9153,341.3427,984.2006,341.0574,978.551,337.99,987.91" style="stroke:#181818;stroke-width:1.0;"/></g><!--MD5=[93d07b996980463cfdccb63725ae3888]
link Heroes to Human--><g id="link_Heroes_Human"><path codeLine="108" d="M349.85,898.15 C302.02,902.52 239.33,914.15 192,944 C176.61,953.71 163.76,969.05 154.1,983.41 " fill="none" id="Heroes-to-Human" style="stroke:#181818;stroke-width:1.0;"/><polygon fill="#181818" points="151.21,987.83,159.4885,982.4946,153.9505,983.6479,152.7972,978.1099,151.21,987.83" style="stroke:#181818;stroke-width:1.0;"/></g><!--MD5=[96556576c4893a2d901ba2b0ee8ff053]
link Beasts to Orcs--><g id="link_Beasts_Orcs"><path codeLine="110" d="M820.78,928.26 C845.43,945.62 875.87,967.07 901.12,984.86 " fill="none" id="Beasts-to-Orcs" style="stroke:#181818;stroke-width:1.0;"/><polygon fill="#181818" points="905.45,987.91,900.4063,979.4506,901.366,985.0255,895.7911,985.9851,905.45,987.91" style="stroke:#181818;stroke-width:1.0;"/></g><!--MD5=[8ac843657a90ddfe9fdc30bf32905ee3]
link Beasts to Trasgos--><g id="link_Beasts_Trasgos"><path codeLine="111" d="M774.22,928.26 C773.82,944.9 773.32,965.3 772.9,982.63 " fill="none" id="Beasts-to-Trasgos" style="stroke:#181818;stroke-width:1.0;"/><polygon fill="#181818" points="772.78,987.91,777.01,979.0158,772.9085,982.9117,769.0127,978.8102,772.78,987.91" style="stroke:#181818;stroke-width:1.0;"/></g><!--MD5=[508d8f23e25b540b07c930aa65400787]
@startuml LOTRGame




package Game{
    Class LOTRGame{
        -Armies armies
        -Turns turns
        -Board board
        -int size

        +LOTRGame()
        +void Execute()
    }
    Class Armies{
        -Characters characters

        +Armies()
        +void atack()
        +void defend()
        +void getArmies()
    }

    Class Turns{
        -Armies armies
        -Board board

        +Turns()
        +void getAttack()
        +void getUpdatePosition()
    }

    Class Board{

        -ArrayList<Characters> characteres

        +Board()
        +void setPosition()
    }

    package GameCharacters{

        Abstract Class Characters{
            #String name
            #int healthPoint
            #int position
            #boolean aliveStatus

            +void atack()
            +void getAtack()
        }

        package Heroes{
            Interface Heroes{
                +Int randomPower()
            }

            package HeroesClasses{


                Class Elves{
                    +final int hateAgainstOrcs
                }

                Class Hobbits{
                    +final int fearAgainstTrasgos
                }
                Class Human{
                    +Human()
                }

            }
        }

        package Beasts{
            Interface Beasts{
                +Int randomPower()
            }

            package BeastClasses{
                Class Orcs{
                    +int strengthBonusAgainstAll
                }
                Class Trasgos{
                    +Trasgos()
                }
            }
        }

    }
}


LOTRGame *- - Armies
LOTRGame *- - Turns
LOTRGame *- - Board

Turns - -> Board
Turns - -> Armies

Armies *- - Characters

Characters - -> Heroes
Characters - -> Beasts

Heroes - -> Elves
Heroes - -> Hobbits
Heroes - -> Human

Beasts - -> Orcs
Beasts - -> Trasgos



@enduml

PlantUML version 1.2022.7(Mon Aug 22 11:01:30 CST 2022)
(GPL source distribution)
Java Runtime: OpenJDK Runtime Environment
JVM: OpenJDK 64-Bit Server VM
Default Encoding: UTF-8
Language: en
Country: US
--></g></svg>