<?xml version="1.0" encoding="UTF-8" standalone="no"?><svg xmlns="http://www.w3.org/2000/svg" xmlns:xlink="http://www.w3.org/1999/xlink" contentStyleType="text/css" height="625px" preserveAspectRatio="none" style="width:956px;height:625px;background:#FFFFFF;" version="1.1" viewBox="0 0 956 625" width="956px" zoomAndPan="magnify"><defs/><g><g id="elem_lordOfRingsGame"><rect fill="#F1F1F1" height="36.2969" style="stroke:#181818;stroke-width:0.5;" width="140" x="393.5" y="7"/><text fill="#000000" font-family="sans-serif" font-size="14" lengthAdjust="spacing" textLength="126" x="400.5" y="21.9951">lordOfRingsGame</text><line style="stroke:#181818;stroke-width:0.5;" x1="394.5" x2="532.5" y1="27.2969" y2="27.2969"/></g><g id="elem_characters"><rect fill="#F1F1F1" height="36.2969" style="stroke:#181818;stroke-width:0.5;" width="90" x="365.5" y="295"/><text fill="#000000" font-family="sans-serif" font-size="14" lengthAdjust="spacing" textLength="76" x="372.5" y="309.9951">characters</text><line style="stroke:#181818;stroke-width:0.5;" x1="366.5" x2="454.5" y1="315.2969" y2="315.2969"/></g><g id="elem_name"><rect fill="#F1F1F1" height="36.2969" style="stroke:#181818;stroke-width:0.5;" width="54" x="15.5" y="391"/><text fill="#000000" font-family="sans-serif" font-size="14" lengthAdjust="spacing" textLength="40" x="22.5" y="405.9951">name</text><line style="stroke:#181818;stroke-width:0.5;" x1="16.5" x2="68.5" y1="411.2969" y2="411.2969"/></g><g id="elem_healthPoints"><rect fill="#F1F1F1" height="36.2969" style="stroke:#181818;stroke-width:0.5;" width="105" x="105" y="391"/><text fill="#000000" font-family="sans-serif" font-size="14" lengthAdjust="spacing" textLength="91" x="112" y="405.9951">healthPoints</text><line style="stroke:#181818;stroke-width:0.5;" x1="106" x2="209" y1="411.2969" y2="411.2969"/></g><g id="elem_armor"><rect fill="#F1F1F1" height="36.2969" style="stroke:#181818;stroke-width:0.5;" width="57" x="245" y="391"/><text fill="#000000" font-family="sans-serif" font-size="14" lengthAdjust="spacing" textLength="43" x="252" y="405.9951">armor</text><line style="stroke:#181818;stroke-width:0.5;" x1="246" x2="301" y1="411.2969" y2="411.2969"/></g><g id="elem_randomPower"><rect fill="#F1F1F1" height="36.2969" style="stroke:#181818;stroke-width:0.5;" width="113" x="594" y="583"/><text fill="#000000" font-family="sans-serif" font-size="14" lengthAdjust="spacing" textLength="99" x="601" y="597.9951">randomPower</text><line style="stroke:#181818;stroke-width:0.5;" x1="595" x2="706" y1="603.2969" y2="603.2969"/></g><g id="elem_elves"><rect fill="#F1F1F1" height="36.2969" style="stroke:#181818;stroke-width:0.5;" width="51" x="92" y="487"/><text fill="#000000" font-family="sans-serif" font-size="14" lengthAdjust="spacing" textLength="37" x="99" y="501.9951">elves</text><line style="stroke:#181818;stroke-width:0.5;" x1="93" x2="142" y1="507.2969" y2="507.2969"/></g><g id="elem_hateBonusvsOrcs"><rect fill="#F1F1F1" height="36.2969" style="stroke:#181818;stroke-width:0.5;" width="137" x="7" y="583"/><text fill="#000000" font-family="sans-serif" font-size="14" lengthAdjust="spacing" textLength="123" x="14" y="597.9951">hateBonusvsOrcs</text><line style="stroke:#181818;stroke-width:0.5;" x1="8" x2="143" y1="603.2969" y2="603.2969"/></g><g id="elem_heros"><rect fill="#F1F1F1" height="36.2969" style="stroke:#181818;stroke-width:0.5;" width="54" x="337.5" y="391"/><text fill="#000000" font-family="sans-serif" font-size="14" lengthAdjust="spacing" textLength="40" x="344.5" y="405.9951">heros</text><line style="stroke:#181818;stroke-width:0.5;" x1="338.5" x2="390.5" y1="411.2969" y2="411.2969"/></g><g id="elem_hobbits"><rect fill="#F1F1F1" height="36.2969" style="stroke:#181818;stroke-width:0.5;" width="70" x="221.5" y="487"/><text fill="#000000" font-family="sans-serif" font-size="14" lengthAdjust="spacing" textLength="56" x="228.5" y="501.9951">hobbits</text><line style="stroke:#181818;stroke-width:0.5;" x1="222.5" x2="290.5" y1="507.2969" y2="507.2969"/></g><g id="elem_beasts"><rect fill="#F1F1F1" height="36.2969" style="stroke:#181818;stroke-width:0.5;" width="62" x="426.5" y="391"/><text fill="#000000" font-family="sans-serif" font-size="14" lengthAdjust="spacing" textLength="48" x="433.5" y="405.9951">beasts</text><line style="stroke:#181818;stroke-width:0.5;" x1="427.5" x2="487.5" y1="411.2969" y2="411.2969"/></g><g id="elem_fearAgainstTrasgos"><rect fill="#F1F1F1" height="36.2969" style="stroke:#181818;stroke-width:0.5;" width="152" x="179.5" y="583"/><text fill="#000000" font-family="sans-serif" font-size="14" lengthAdjust="spacing" textLength="138" x="186.5" y="597.9951">fearAgainstTrasgos</text><line style="stroke:#181818;stroke-width:0.5;" x1="180.5" x2="330.5" y1="603.2969" y2="603.2969"/></g><g id="elem_humans"><rect fill="#F1F1F1" height="36.2969" style="stroke:#181818;stroke-width:0.5;" width="69" x="330" y="487"/><text fill="#000000" font-family="sans-serif" font-size="14" lengthAdjust="spacing" textLength="55" x="337" y="501.9951">humans</text><line style="stroke:#181818;stroke-width:0.5;" x1="331" x2="398" y1="507.2969" y2="507.2969"/></g><g id="elem_charactersGoal"><rect fill="#F1F1F1" height="36.2969" style="stroke:#181818;stroke-width:0.5;" width="122" x="523.5" y="391"/><text fill="#000000" font-family="sans-serif" font-size="14" lengthAdjust="spacing" textLength="108" x="530.5" y="405.9951">charactersGoal</text><line style="stroke:#181818;stroke-width:0.5;" x1="524.5" x2="644.5" y1="411.2969" y2="411.2969"/></g><g id="elem_attack"><rect fill="#F1F1F1" height="36.2969" style="stroke:#181818;stroke-width:0.5;" width="61" x="619" y="487"/><text fill="#000000" font-family="sans-serif" font-size="14" lengthAdjust="spacing" textLength="47" x="626" y="501.9951">attack</text><line style="stroke:#181818;stroke-width:0.5;" x1="620" x2="679" y1="507.2969" y2="507.2969"/></g><g id="elem_orcs"><rect fill="#F1F1F1" height="36.2969" style="stroke:#181818;stroke-width:0.5;" width="44" x="435.5" y="487"/><text fill="#000000" font-family="sans-serif" font-size="14" lengthAdjust="spacing" textLength="30" x="442.5" y="501.9951">orcs</text><line style="stroke:#181818;stroke-width:0.5;" x1="436.5" x2="478.5" y1="507.2969" y2="507.2969"/></g><g id="elem_strengthBonusAgainstAll"><rect fill="#F1F1F1" height="36.2969" style="stroke:#181818;stroke-width:0.5;" width="192" x="366.5" y="583"/><text fill="#000000" font-family="sans-serif" font-size="14" lengthAdjust="spacing" textLength="178" x="373.5" y="597.9951">strengthBonusAgainstAll</text><line style="stroke:#181818;stroke-width:0.5;" x1="367.5" x2="557.5" y1="603.2969" y2="603.2969"/></g><g id="elem_trasgos"><rect fill="#F1F1F1" height="36.2969" style="stroke:#181818;stroke-width:0.5;" width="67" x="515" y="487"/><text fill="#000000" font-family="sans-serif" font-size="14" lengthAdjust="spacing" textLength="53" x="522" y="501.9951">trasgos</text><line style="stroke:#181818;stroke-width:0.5;" x1="516" x2="581" y1="507.2969" y2="507.2969"/></g><g id="elem_goalGame"><rect fill="#F1F1F1" height="36.2969" style="stroke:#181818;stroke-width:0.5;" width="86" x="283.5" y="103"/><text fill="#000000" font-family="sans-serif" font-size="14" lengthAdjust="spacing" textLength="72" x="290.5" y="117.9951">goalGame</text><line style="stroke:#181818;stroke-width:0.5;" x1="284.5" x2="368.5" y1="123.2969" y2="123.2969"/></g><g id="elem_turnsGoal"><rect fill="#F1F1F1" height="36.2969" style="stroke:#181818;stroke-width:0.5;" width="83" x="691" y="199"/><text fill="#000000" font-family="sans-serif" font-size="14" lengthAdjust="spacing" textLength="69" x="698" y="213.9951">turnsGoal</text><line style="stroke:#181818;stroke-width:0.5;" x1="692" x2="773" y1="219.2969" y2="219.2969"/></g><g id="elem_createArmies"><rect fill="#F1F1F1" height="36.2969" style="stroke:#181818;stroke-width:0.5;" width="111" x="264" y="199"/><text fill="#000000" font-family="sans-serif" font-size="14" lengthAdjust="spacing" textLength="97" x="271" y="213.9951">createArmies</text><line style="stroke:#181818;stroke-width:0.5;" x1="265" x2="374" y1="219.2969" y2="219.2969"/></g><g id="elem_fightBtwThem"><rect fill="#F1F1F1" height="36.2969" style="stroke:#181818;stroke-width:0.5;" width="118" x="832.5" y="295"/><text fill="#000000" font-family="sans-serif" font-size="14" lengthAdjust="spacing" textLength="104" x="839.5" y="309.9951">fightBtwThem</text><line style="stroke:#181818;stroke-width:0.5;" x1="833.5" x2="949.5" y1="315.2969" y2="315.2969"/></g><g id="elem_turns"><rect fill="#F1F1F1" height="36.2969" style="stroke:#181818;stroke-width:0.5;" width="51" x="553" y="103"/><text fill="#000000" font-family="sans-serif" font-size="14" lengthAdjust="spacing" textLength="37" x="560" y="117.9951">turns</text><line style="stroke:#181818;stroke-width:0.5;" x1="554" x2="603" y1="123.2969" y2="123.2969"/></g><g id="elem_board"><rect fill="#F1F1F1" height="36.2969" style="stroke:#181818;stroke-width:0.5;" width="56" x="515.5" y="199"/><text fill="#000000" font-family="sans-serif" font-size="14" lengthAdjust="spacing" textLength="42" x="522.5" y="213.9951">board</text><line style="stroke:#181818;stroke-width:0.5;" x1="516.5" x2="570.5" y1="219.2969" y2="219.2969"/></g><g id="elem_characterPosition"><rect fill="#F1F1F1" height="36.2969" style="stroke:#181818;stroke-width:0.5;" width="141" x="491" y="295"/><text fill="#000000" font-family="sans-serif" font-size="14" lengthAdjust="spacing" textLength="127" x="498" y="309.9951">characterPosition</text><line style="stroke:#181818;stroke-width:0.5;" x1="492" x2="631" y1="315.2969" y2="315.2969"/></g><g id="elem_position"><rect fill="#F1F1F1" height="36.2969" style="stroke:#181818;stroke-width:0.5;" width="73" x="681" y="391"/><text fill="#000000" font-family="sans-serif" font-size="14" lengthAdjust="spacing" textLength="59" x="688" y="405.9951">position</text><line style="stroke:#181818;stroke-width:0.5;" x1="682" x2="753" y1="411.2969" y2="411.2969"/></g><g id="elem_updatePositions"><rect fill="#F1F1F1" height="36.2969" style="stroke:#181818;stroke-width:0.5;" width="130" x="667.5" y="295"/><text fill="#000000" font-family="sans-serif" font-size="14" lengthAdjust="spacing" textLength="116" x="674.5" y="309.9951">updatePositions</text><line style="stroke:#181818;stroke-width:0.5;" x1="668.5" x2="796.5" y1="315.2969" y2="315.2969"/></g><g id="elem_headCounts"><rect fill="#F1F1F1" height="36.2969" style="stroke:#181818;stroke-width:0.5;" width="99" x="231" y="295"/><text fill="#000000" font-family="sans-serif" font-size="14" lengthAdjust="spacing" textLength="85" x="238" y="309.9951">headCounts</text><line style="stroke:#181818;stroke-width:0.5;" x1="232" x2="329" y1="315.2969" y2="315.2969"/></g><g id="elem_aliveStatus"><rect fill="#F1F1F1" height="36.2969" style="stroke:#181818;stroke-width:0.5;" width="93" x="789" y="391"/><text fill="#000000" font-family="sans-serif" font-size="14" lengthAdjust="spacing" textLength="79" x="796" y="405.9951">aliveStatus</text><line style="stroke:#181818;stroke-width:0.5;" x1="790" x2="881" y1="411.2969" y2="411.2969"/></g><!--reverse link characters to heros--><g id="link_characters_heros"><path codeLine="39" d="M396.318,342.981 C388.64,358.67 379.418,377.515 372.884,390.868 " fill="none" id="characters-backto-heros" style="stroke:#181818;stroke-width:1.0;"/><polygon fill="#181818" points="402.063,331.241,395.8328,334.8721,396.7884,342.0196,403.0186,338.3885,402.063,331.241" style="stroke:#181818;stroke-width:1.0;"/></g><!--reverse link characters to beasts--><g id="link_characters_beasts"><path codeLine="40" d="M424.991,342.981 C432.835,358.67 442.258,377.515 448.934,390.868 " fill="none" id="characters-backto-beasts" style="stroke:#181818;stroke-width:1.0;"/><polygon fill="#181818" points="419.121,331.241,418.2262,338.3964,424.487,341.9744,425.3818,334.819,419.121,331.241" style="stroke:#181818;stroke-width:1.0;"/></g><!--reverse link characters to charactersGoal--><g id="link_characters_charactersGoal"><path codeLine="41" d="M453.692,337.334 C484.475,353.964 525.16,375.943 552.931,390.945 " fill="none" id="characters-backto-charactersGoal" style="stroke:#181818;stroke-width:1.0;"/><polygon fill="#181818" points="442.01,331.023,445.3878,337.3941,452.5679,336.7266,449.1901,330.3555,442.01,331.023" style="stroke:#181818;stroke-width:1.0;"/></g><!--reverse link characters to armor--><g id="link_characters_armor"><path codeLine="42" d="M374.908,338.421 C350.96,354.852 319.973,376.113 298.588,390.786 " fill="none" id="characters-backto-armor" style="stroke:#181818;stroke-width:1.0;"/><polygon fill="#181818" points="385.69,331.023,378.4795,331.1193,375.7952,337.8121,383.0056,337.7158,385.69,331.023" style="stroke:#181818;stroke-width:1.0;"/></g><!--reverse link characters to healthPoints--><g id="link_characters_healthPoints"><path codeLine="43" d="M352.995,335.365 C307.777,352.166 245.613,375.262 203.621,390.864 " fill="none" id="characters-backto-healthPoints" style="stroke:#181818;stroke-width:1.0;"/><polygon fill="#181818" points="365.269,330.805,358.2516,329.1449,354.0202,334.9841,361.0376,336.6441,365.269,330.805" style="stroke:#181818;stroke-width:1.0;"/></g><!--reverse link characters to name--><g id="link_characters_name"><path codeLine="44" d="M352.754,329.672 C350.984,330.124 349.229,330.567 347.5,331 C232.454,359.786 201.004,356.634 87.5,391 C81.745,392.742 75.6676,394.85 69.9044,396.978 " fill="none" id="characters-backto-name" style="stroke:#181818;stroke-width:1.0;"/><polygon fill="#181818" points="365.47,326.366,358.6568,324.0037,353.8558,329.3843,360.669,331.7465,365.47,326.366" style="stroke:#181818;stroke-width:1.0;"/></g><!--reverse link characters to aliveStatus--><g id="link_characters_aliveStatus"><path codeLine="45" d="M468.605,329.828 C470.253,330.229 471.887,330.62 473.5,331 C605.01,361.948 639.929,360.311 771.5,391 C777.098,392.306 782.951,393.75 788.745,395.229 " fill="none" id="characters-backto-aliveStatus" style="stroke:#181818;stroke-width:1.0;"/><polygon fill="#181818" points="455.834,326.61,460.6745,331.9551,467.4701,329.5428,462.6296,324.1977,455.834,326.61" style="stroke:#181818;stroke-width:1.0;"/></g><!--reverse link lordOfRingsGame to turns--><g id="link_lordOfRingsGame_turns"><path codeLine="47" d="M494.474,51.318 C514.418,67.62 539.815,88.379 557.441,102.786 " fill="none" id="lordOfRingsGame-backto-turns" style="stroke:#181818;stroke-width:1.0;"/><polygon fill="#181818" points="484.326,43.023,486.4397,49.9174,493.6167,50.618,491.503,43.7236,484.326,43.023" style="stroke:#181818;stroke-width:1.0;"/></g><!--reverse link lordOfRingsGame to characters--><g id="link_lordOfRingsGame_characters"><path codeLine="48" d="M457.961,55.89 C446.919,115.476 422.474,247.386 413.707,294.694 " fill="none" id="lordOfRingsGame-backto-characters" style="stroke:#181818;stroke-width:1.0;"/><polygon fill="#181818" points="460.343,43.034,455.3161,48.2042,458.1552,54.8329,463.1821,49.6627,460.343,43.034" style="stroke:#181818;stroke-width:1.0;"/></g><!--reverse link lordOfRingsGame to goalGame--><g id="link_lordOfRingsGame_goalGame"><path codeLine="49" d="M427.908,50.421 C403.96,66.852 372.973,88.113 351.588,102.786 " fill="none" id="lordOfRingsGame-backto-goalGame" style="stroke:#181818;stroke-width:1.0;"/><polygon fill="#181818" points="438.69,43.023,431.4795,43.1193,428.7952,49.8121,436.0056,49.7158,438.69,43.023" style="stroke:#181818;stroke-width:1.0;"/></g><!--reverse link lordOfRingsGame to board--><g id="link_lordOfRingsGame_board"><path codeLine="50" d="M475.847,55.324 C492.785,95.551 522.678,166.548 536.333,198.979 " fill="none" id="lordOfRingsGame-backto-board" style="stroke:#181818;stroke-width:1.0;"/><polygon fill="#181818" points="470.741,43.196,469.3825,50.278,475.3973,54.2558,476.7557,47.1738,470.741,43.196" style="stroke:#181818;stroke-width:1.0;"/></g><!--reverse link goalGame to createArmies--><g id="link_goalGame_createArmies"><path codeLine="51" d="M324.237,152.387 C323.091,167.785 321.741,185.912 320.776,198.868 " fill="none" id="goalGame-backto-createArmies" style="stroke:#181818;stroke-width:1.0;"/><polygon fill="#181818" points="325.216,139.241,320.7813,144.9273,324.3246,151.2078,328.7592,145.5216,325.216,139.241" style="stroke:#181818;stroke-width:1.0;"/></g><!--reverse link charactersGoal to attack--><g id="link_charactersGoal_attack"><path codeLine="53" d="M603.898,438.053 C614.871,453.921 628.237,473.251 637.654,486.868 " fill="none" id="charactersGoal-backto-attack" style="stroke:#181818;stroke-width:1.0;"/><polygon fill="#181818" points="596.422,427.241,596.5446,434.4511,603.2472,437.111,603.1246,429.9009,596.422,427.241" style="stroke:#181818;stroke-width:1.0;"/></g><!--reverse link heros to elves--><g id="link_heros_elves"><path codeLine="55" d="M318.278,427.59 C266.523,447.287 184.496,478.503 143.138,494.243 " fill="none" id="heros-backto-elves" style="stroke:#181818;stroke-width:1.0;"/><polygon fill="none" points="315.941,420.99,337.123,420.419,320.921,434.075,315.941,420.99" style="stroke:#181818;stroke-width:1.0;"/></g><!--reverse link heros to hobbits--><g id="link_heros_hobbits"><path codeLine="56" d="M329.841,440.166 C312.134,455.578 291.229,473.773 276.277,486.786 " fill="none" id="heros-backto-hobbits" style="stroke:#181818;stroke-width:1.0;"/><polygon fill="none" points="325.26,434.873,344.942,427.023,334.452,445.433,325.26,434.873" style="stroke:#181818;stroke-width:1.0;"/></g><!--reverse link heros to humans--><g id="link_heros_humans"><path codeLine="57" d="M364.5,447.621 C364.5,461.213 364.5,475.895 364.5,486.868 " fill="none" id="heros-backto-humans" style="stroke:#181818;stroke-width:1.0;"/><polygon fill="none" points="357.5,447.241,364.5,427.241,371.5,447.241,357.5,447.241" style="stroke:#181818;stroke-width:1.0;"/></g><!--reverse link beasts to orcs--><g id="link_beasts_orcs"><path codeLine="59" d="M457.5,447.621 C457.5,461.213 457.5,475.895 457.5,486.868 " fill="none" id="beasts-backto-orcs" style="stroke:#181818;stroke-width:1.0;"/><polygon fill="none" points="450.5,447.241,457.5,427.241,464.5,447.241,450.5,447.241" style="stroke:#181818;stroke-width:1.0;"/></g><!--reverse link beasts to trasgos--><g id="link_beasts_trasgos"><path codeLine="60" d="M488.294,441.809 C502.893,456.89 519.756,474.308 531.915,486.868 " fill="none" id="beasts-backto-trasgos" style="stroke:#181818;stroke-width:1.0;"/><polygon fill="none" points="483.072,446.48,474.191,427.241,493.131,436.742,483.072,446.48" style="stroke:#181818;stroke-width:1.0;"/></g><!--reverse link elves to hateBonusvsOrcs--><g id="link_elves_hateBonusvsOrcs"><path codeLine="62" d="M104.3424,535.4481 C97.3746,551.0425 89.0618,569.6473 83.1546,582.8683 " fill="none" id="elves-backto-hateBonusvsOrcs" style="stroke:#181818;stroke-width:1.0;"/><polygon fill="#181818" points="109.797,523.241,103.6972,527.0871,104.9014,534.197,111.0012,530.3508,109.797,523.241" style="stroke:#181818;stroke-width:1.0;"/></g><!--reverse link hobbits to fearAgainstTrasgos--><g id="link_hobbits_fearAgainstTrasgos"><path codeLine="63" d="M256.177,536.3873 C256.013,551.7845 255.82,569.9118 255.682,582.8683 " fill="none" id="hobbits-backto-fearAgainstTrasgos" style="stroke:#181818;stroke-width:1.0;"/><polygon fill="#181818" points="256.317,523.241,252.2534,529.1981,256.1894,535.2403,260.253,529.2832,256.317,523.241" style="stroke:#181818;stroke-width:1.0;"/></g><!--reverse link orcs to strengthBonusAgainstAll--><g id="link_orcs_strengthBonusAgainstAll"><path codeLine="64" d="M459.116,536.3873 C459.935,551.7845 460.9,569.9118 461.589,582.8683 " fill="none" id="orcs-backto-strengthBonusAgainstAll" style="stroke:#181818;stroke-width:1.0;"/><polygon fill="#181818" points="458.417,523.241,454.7414,529.445,459.0545,535.2241,462.7301,529.02,458.417,523.241" style="stroke:#181818;stroke-width:1.0;"/></g><!--reverse link attack to randomPower--><g id="link_attack_randomPower"><path codeLine="66" d="M649.823,536.3873 C649.987,551.7845 650.18,569.9118 650.318,582.8683 " fill="none" id="attack-backto-randomPower" style="stroke:#181818;stroke-width:1.0;"/><polygon fill="#181818" points="649.683,523.241,645.747,529.2832,649.8106,535.2403,653.7466,529.1981,649.683,523.241" style="stroke:#181818;stroke-width:1.0;"/></g><!--reverse link turns to turnsGoal--><g id="link_turns_turnsGoal"><path codeLine="67" d="M615.379,144.51 C642.772,161.231 679.567,183.69 704.553,198.942 " fill="none" id="turns-backto-turnsGoal" style="stroke:#181818;stroke-width:1.0;"/><polygon fill="#181818" points="604.276,137.733,607.3133,144.2733,614.5186,143.9851,611.4813,137.4449,604.276,137.733" style="stroke:#181818;stroke-width:1.0;"/></g><!--reverse link turnsGoal to fightBtwThem--><g id="link_turnsGoal_fightBtwThem"><path codeLine="68" d="M772.718,241.776 C800.755,258.352 837.5,280.075 862.652,294.945 " fill="none" id="turnsGoal-backto-fightBtwThem" style="stroke:#181818;stroke-width:1.0;"/><polygon fill="#181818" points="761.294,235.023,764.4232,241.5198,771.6237,241.1301,768.4946,234.6333,761.294,235.023" style="stroke:#181818;stroke-width:1.0;"/></g><!--reverse link turnsGoal to updatePositions--><g id="link_turnsGoal_updatePositions"><path codeLine="69" d="M732.5,248.387 C732.5,263.785 732.5,281.912 732.5,294.868 " fill="none" id="turnsGoal-backto-updatePositions" style="stroke:#181818;stroke-width:1.0;"/><polygon fill="#181818" points="732.5,235.241,728.5,241.241,732.5,247.241,736.5,241.241,732.5,235.241" style="stroke:#181818;stroke-width:1.0;"/></g><!--link board to characters--><g id="link_board_characters"><path codeLine="71" d="M519.415,235.023 C496.864,250.961 463.145,274.792 439.207,291.711 " fill="none" id="board-to-characters" style="stroke:#181818;stroke-width:1.0;"/><polygon fill="#181818" points="434.856,294.786,444.5146,292.8595,438.9396,291.9008,439.8983,286.3258,434.856,294.786" style="stroke:#181818;stroke-width:1.0;"/></g><!--reverse link board to characterPosition--><g id="link_board_characterPosition"><path codeLine="72" d="M549.319,248.387 C552.267,263.785 555.738,281.912 558.219,294.868 " fill="none" id="board-backto-characterPosition" style="stroke:#181818;stroke-width:1.0;"/><polygon fill="#181818" points="546.801,235.241,544.0013,241.8864,549.0587,247.0267,551.8584,240.3813,546.801,235.241" style="stroke:#181818;stroke-width:1.0;"/></g><!--reverse link characters to position--><g id="link_characters_position"><path codeLine="74" d="M468.32,331.609 C519.407,347.182 595.925,370.54 662.5,391 C668.423,392.82 674.703,394.756 680.82,396.644 " fill="none" id="characters-backto-position" style="stroke:#181818;stroke-width:1.0;"/><polygon fill="#181818" points="455.58,327.726,460.1533,333.3014,467.0587,331.2243,462.4855,325.6489,455.58,327.726" style="stroke:#181818;stroke-width:1.0;"/></g><!--reverse link createArmies to headCounts--><g id="link_createArmies_headCounts"><path codeLine="76" d="M307.282,247.448 C300.812,263.042 293.093,281.647 287.608,294.868 " fill="none" id="createArmies-backto-headCounts" style="stroke:#181818;stroke-width:1.0;"/><polygon fill="#181818" points="312.347,235.241,306.3533,239.2504,307.749,246.3252,313.7427,242.3157,312.347,235.241" style="stroke:#181818;stroke-width:1.0;"/></g><!--link createArmies to characters--><g id="link_createArmies_characters"><path codeLine="77" d="M336.191,235.241 C351.456,251.009 374.07,274.369 390.339,291.174 " fill="none" id="createArmies-to-characters" style="stroke:#181818;stroke-width:1.0;"/><polygon fill="#181818" points="393.915,294.868,390.5304,285.619,390.4378,291.2751,384.7817,291.1825,393.915,294.868" style="stroke:#181818;stroke-width:1.0;"/></g><!--link turns to board--><g id="link_turns_board"><path codeLine="79" d="M572.08,139.241 C566.357,154.612 557.948,177.196 551.732,193.891 " fill="none" id="turns-to-board" style="stroke:#181818;stroke-width:1.0;"/><polygon fill="#181818" points="549.879,198.868,556.7675,191.8289,551.6233,194.1821,549.2701,189.038,549.879,198.868" style="stroke:#181818;stroke-width:1.0;"/></g><!--SRC=[VLJBRi8m4Bpp5JbNoXzKbQ07Zg2M7zWa9dQRU96zWKi_lebDabt7BJTc1kzZTi3gIzLKTEYQq_N3sDOVeLUxOlnWf6eD3cfIpdFKJYeEQ0KTwJCQIq88haSdb0viW_qP7qhYghihyLCDf0ve1t_t9rTBIZdqiZvMbP6bAmLU8bS5Rj-2iPuk3doByj6X1-lpinyHEZ4M4TJV0U4m9drwSigsfCCOpyhxhXETqxQJTgoM-a23ivisQgV69UrTR-JghgRLTA37HQj-jtb5B0d1DTcPp-WD6RISl6MmuTQCFSpgn2Petd58Jw8pT_L9GCDeOI3MFHSlPVbqDqCmHnCcurIYY8UOhPPSRiBRsOZqGJx6n2SX2g9rtpasoLPE8auX9rWDdANnQNuPIVlJYk88yOe37PPUlFwCy9f41lA0SJY69i3HdeWlIU3WVEg125MY0vcWFyi5_g_OZjh0_vkoE6FGyN-UYGhch3OjbxDyYzLvbhPqUlvnwCcKeYpVKeiZ8RnVSfOxifiacQdpxVA02JwfpYQUcD38Bm00]--></g></svg>